<?xml version="1.0" encoding="utf-8"?>
<!-- Generator: Adobe Illustrator 19.1.0, SVG Export Plug-In . SVG Version: 6.00 Build 0)  -->
<svg version="1.1" id="Layer_1" xmlns="http://www.w3.org/2000/svg" xmlns:xlink="http://www.w3.org/1999/xlink" x="0px" y="0px"
	 viewBox="0 0 91.3 91.3" style="background-color: black; enable-background:new 0 0 91.3 91.3;" xml:space="preserve">
<style type="text/css">
	.st0{fill:url(#SVGID_1_);}
	.st1{fill:url(#SVGID_2_);}
	.st2{fill:url(#SVGID_3_);}
	.st3{fill:url(#SVGID_4_);}
	.st4{fill:url(#SVGID_5_);}
</style>
<g>
	<linearGradient id="SVGID_1_" gradientUnits="userSpaceOnUse" x1="47.2603" y1="34.3918" x2="49.3799" y2="34.3918">
		<stop  offset="0" style="stop-color:#BCA061"/>
		<stop  offset="0.1845" style="stop-color:#AA925A"/>
		<stop  offset="0.4536" style="stop-color:#968253"/>
		<stop  offset="0.7249" style="stop-color:#8A784F"/>
		<stop  offset="1" style="stop-color:#86754D"/>
	</linearGradient>
	<path class="st0" d="M49.3,31.9c-0.1,0-0.1,0-0.2,0.1L49.1,32c-0.1,0-0.1,0-0.2,0.1c-0.7,0.4-1.2,1.1-1.5,2.1
		c-0.2,0.9-0.2,1.8,0.1,2.7c0.1-0.1,0.2-0.2,0.3-0.3c0.2-0.2,0.4-0.5,0.6-0.8c0.3-0.6,0.6-1.2,0.8-1.9
		C49.4,33.2,49.4,32.5,49.3,31.9C49.3,31.9,49.3,31.9,49.3,31.9z"/>
	<linearGradient id="SVGID_2_" gradientUnits="userSpaceOnUse" x1="14.8513" y1="45.2922" x2="76.4903" y2="45.2922">
		<stop  offset="0" style="stop-color:#BCA061"/>
		<stop  offset="0.1845" style="stop-color:#AA925A"/>
		<stop  offset="0.4536" style="stop-color:#968253"/>
		<stop  offset="0.7249" style="stop-color:#8A784F"/>
		<stop  offset="1" style="stop-color:#86754D"/>
	</linearGradient>
	<path class="st1" d="M45.7,14.5c-17,0-30.8,13.8-30.8,30.8c0,17,13.8,30.8,30.8,30.8c17,0,30.8-13.8,30.8-30.8
		C76.5,28.3,62.7,14.5,45.7,14.5z M22.6,31.4c0.3-0.7,0.8-1.4,1.3-2c0.6-0.6,1.3-1,2-1.3c1.5-0.6,3.2-0.7,4.7,0.1
		c0.7,0.4,1.3,0.9,1.7,1.4c0.4,0.6,0.7,1.3,0.7,2c0,0.7-0.2,1.2-0.7,1.7c-0.4,0.5-1,0.7-1.6,0.7c-0.5,0-0.9-0.1-1.2-0.4
		c-0.3-0.3-0.5-0.6-0.5-1.1c0-0.3,0.1-0.5,0.2-0.7c0.3-0.3,0.9-0.3,1.2,0c0.1,0.2,0.2,0.4,0.2,0.6c0,0.2-0.1,0.4-0.3,0.6
		c0,0,0,0-0.1,0c0.1,0.1,0.3,0.1,0.5,0.1c0.3,0,0.6-0.1,0.8-0.3c0.2-0.2,0.3-0.4,0.3-0.6c0-0.3-0.2-0.6-0.7-0.9
		c-0.5-0.3-0.9-0.6-1.1-0.8c-0.2-0.2-0.3-0.5-0.3-0.9c0-0.2,0-0.5,0.1-0.7c-1-0.6-2.5-0.6-3.6,0c-0.6,0.3-1,0.7-1.4,1.2
		c-0.3,0.5-0.5,1-0.5,1.6c0,0.7,0.3,1.3,0.9,1.8l0.9,0.9c0.8,0.7,1.1,1.6,1.2,2.6c0.1-0.2,0.2-0.4,0.4-0.6c0.4-0.5,0.9-0.8,1.6-0.8
		c0.7,0,1.3,0.3,1.6,1c0,0.1,0,0.2-0.1,0.3c-0.1,0.1-0.2,0.1-0.3,0c-0.5-0.4-1.1-0.5-1.4-0.2C29.1,37,29,37.2,29,37.4
		c0,0.1,0,0.4,0.3,0.9c0.2,0.4,0.3,0.8,0.3,1c0,0.5-0.2,0.9-0.5,1.2c-0.2,0.2-0.4,0.3-0.6,0.3c0.3,0.2,0.6,0.3,0.9,0.4
		c0.5,0.2,1,0.3,1.5,0.3c0.7,0,1.2-0.2,1.5-0.6c0,0,0.1-0.1,0.2-0.1c0.1,0,0.1,0,0.2,0.1c0.3,0.3,0.5,0.5,0.5,0.8
		c0,0.1,0,0.2-0.1,0.3c-0.5,0.3-1.2,0.4-2,0.4c-1.2,0-2.3-0.3-3.4-1c-0.1,0.3-0.2,0.4-0.4,0.6c-0.3,0.3-0.6,0.4-1,0.4
		c-0.5,0-0.8-0.1-1.1-0.3c-0.3-0.2-0.5-0.6-0.8-1.2c-0.3-0.6-0.6-0.6-0.7-0.6c-0.1,0-0.2,0-0.3,0.1c-0.1,0.1-0.1,0.1-0.1,0.3
		c0,0,0,0.1,0.1,0.4c0,0.1,0,0.2-0.1,0.3c-0.1,0.1-0.2,0.1-0.3,0c-0.4-0.3-0.7-0.7-0.7-1.1c0-0.4,0.2-0.8,0.5-1.1
		c0.4-0.4,1.1-0.5,1.7-0.3c-0.3-0.3-0.6-0.6-0.8-1c-0.5-0.7-0.9-1.4-1.2-2.1c-0.3-0.7-0.4-1.5-0.4-2.2
		C22.1,32.9,22.2,32.1,22.6,31.4z M23.6,62.4c-1-0.4-1.9-1-2.6-1.8c-0.7-0.7-1.4-1.6-1.8-2.6c-0.4-1-0.6-2-0.6-3.1
		c0-0.9,0.2-1.9,0.5-2.8c0.4-1,0.9-1.9,1.5-2.8c0.4-0.5,0.8-1,1.3-1.5c-1,0.3-1.9,0.2-2.6-0.3c-0.4-0.3-0.6-0.8-0.6-1.3
		c0-0.6,0.3-1.1,0.8-1.4c0.1-0.1,0.2,0,0.3,0c0.1,0.1,0.1,0.2,0.1,0.3c-0.1,0.3-0.1,0.5-0.1,0.5c0,0.2,0.1,0.3,0.2,0.4
		c0.1,0.1,0.3,0.2,0.5,0.2c0.4,0,0.7-0.3,1-0.9c0.3-0.7,0.7-1.2,1-1.5c0.4-0.3,0.9-0.4,1.4-0.4c0.5,0,1,0.2,1.3,0.5
		c0.2,0.2,0.4,0.5,0.5,0.9c1.4-0.9,3-1.4,4.6-1.4c1,0,1.9,0.2,2.6,0.6c0.1,0.1,0.2,0.2,0.1,0.3c-0.1,0.4-0.3,0.7-0.7,1
		c-0.1,0.1-0.1,0.1-0.2,0.1c-0.1,0-0.1,0-0.2-0.1c-0.4-0.5-1.1-0.8-2-0.8c-0.6,0-1.3,0.1-2,0.4c-0.5,0.2-0.9,0.4-1.4,0.7
		c0.4,0.1,0.8,0.3,1,0.5c0.4,0.4,0.7,0.9,0.7,1.6c0,0.3-0.1,0.7-0.4,1.3c-0.3,0.7-0.3,1.1-0.3,1.3c0,0.4,0.1,0.6,0.3,0.8
		c0.4,0.4,1.2,0.4,1.9-0.2c0.1-0.1,0.2-0.1,0.3,0c0.1,0.1,0.1,0.2,0.1,0.3c-0.4,0.9-1.1,1.3-2.1,1.3c-0.8,0-1.5-0.4-2-1
		c-0.2-0.3-0.5-0.7-0.7-1.1c0,0.1,0,0.2,0,0.3c0,1.4-0.5,2.6-1.5,3.5L22.9,55c-0.8,0.7-1.2,1.6-1.2,2.5c0,0.8,0.2,1.5,0.7,2.2
		c0.5,0.7,1.1,1.2,1.8,1.6c0.8,0.4,1.6,0.6,2.6,0.6c0.9,0,1.7-0.2,2.4-0.6C29,61,29,60.7,29,60.4c0-0.5,0.1-0.9,0.3-1.1
		c0.2-0.3,0.7-0.6,1.4-1c0.6-0.4,0.9-0.8,0.9-1.2c0-0.4-0.2-0.7-0.4-0.9c-0.3-0.3-0.7-0.4-1.1-0.4c-0.3,0-0.6,0.1-0.8,0.2
		c0.1,0,0.2,0.1,0.2,0.1c0.2,0.2,0.4,0.4,0.4,0.7c0,0.3-0.1,0.5-0.3,0.7c-0.4,0.4-1.1,0.4-1.4,0c-0.2-0.2-0.3-0.5-0.3-0.8
		c0-0.5,0.2-1,0.7-1.3c0.4-0.4,1-0.5,1.6-0.5c0.8,0,1.5,0.3,2.1,0.9c0.6,0.6,0.9,1.3,0.9,2.2c0,0.9-0.3,1.8-0.9,2.6
		c-0.6,0.8-1.3,1.4-2.3,1.9c-0.9,0.5-2,0.7-3.1,0.7C25.7,63,24.6,62.8,23.6,62.4z M69.8,53.7h1.1l-3.8,13.1h-39v-1
		c2.3-0.4,4-1.3,5-2.7c0.8-1,1.2-3.1,1.2-6.1V32.8c0-1.9-0.1-3.3-0.3-4.2c-0.2-0.9-0.6-1.6-1.2-2.2c-1.1-1.2-2.6-2-4.7-2.3v-1H37
		h1.6h27.1l1.2,11.9h-1c-1.1-3.7-2.7-6.4-4.9-8.1c-1.7-1.4-3.8-2.2-6.3-2.5c0.1,0.3,0.2,0.5,0.3,0.7c0.1,0.3,0.1,0.5,0.1,0.8
		c0,0.1,0,0.2,0,0.3c0,0.1,0,0.2,0,0.3c-0.1,0.4-0.2,0.8-0.5,1c-0.2,0.2-0.5,0.4-0.7,0.6c-0.1,0.1-0.2,0.1-0.3,0.2
		c-0.1,0.1-0.2,0.2-0.3,0.2C53.1,28.8,53,29,53,29.2c-0.1,0.2,0,0.4,0,0.6L52.8,30l0.2-0.1c0,0,0,0,0,0.1c0,0,0,0,0,0c0,0,0,0,0,0
		c0.1,0.1,0.2,0.2,0.3,0.2c0.1,0,0.2,0,0.3,0c0.1,0,0.2-0.1,0.2-0.2c0-0.1,0.1-0.3,0.1-0.4c0,0,0-0.1,0-0.1l0-0.2
		c0-0.1,0-0.2,0.1-0.3c0.1-0.2,0.2-0.4,0.4-0.6c0.2-0.2,0.4-0.4,0.7-0.5c1-0.5,2-0.5,2.9,0c0.9,0.5,1.7,1.2,2.3,2
		c0,0.1,0.1,0.2,0.1,0.2c0.1,0.1,0.1,0.2,0.2,0.3c0,0.1,0.1,0.1,0.1,0.2c0,0.1,0.1,0.1,0.1,0.2c0.1,0.4,0.2,0.8,0.1,1.2
		c0,0.4-0.1,0.8-0.2,1.1c-0.1,0.2-0.2,0.4-0.2,0.5c-0.1,0.2-0.2,0.3-0.4,0.4c-0.1,0.1-0.1,0-0.2,0.1c-0.1,0-0.2,0-0.3,0
		c-0.1,0-0.2-0.1-0.3-0.1c0,0-0.1,0-0.1-0.1c0,0,0,0-0.1,0c0-0.1-0.1-0.2-0.1-0.3c0-0.1,0-0.2,0-0.3l0-0.2c0-0.1,0-0.1,0-0.2
		c0-0.1,0-0.1,0.1-0.2c0.1-0.1,0.1-0.2,0.2-0.2l0.3-0.4c0.2-0.2,0.3-0.4,0.3-0.6c0.1-0.1,0-0.3-0.1-0.5c-0.2-0.3-0.4-0.6-0.8-0.7
		c-0.4-0.2-0.7-0.2-1,0c-0.2,0.1-0.4,0.3-0.5,0.5c-0.1,0.2-0.3,0.5-0.4,0.7c-0.1,0.1-0.1,0.3-0.2,0.4c0,0.2-0.1,0.3-0.2,0.4
		c-0.1,0.1-0.1,0.2-0.2,0.3c-0.1,0.1-0.2,0.1-0.3,0.2c-0.4,0.2-0.8,0.1-1.1-0.1c-0.3-0.2-0.5-0.5-0.7-0.9l0-0.1c0,0,0-0.1,0-0.1
		c-0.1-0.2-0.3-0.3-0.4-0.4c-0.1-0.1-0.3-0.1-0.4,0c-0.1,0.1-0.2,0.2-0.3,0.3c-0.1,0.1-0.1,0.3,0,0.4c0.1,0.1,0.1,0.2,0.1,0.2
		c0.1,0.1,0.1,0.1,0.2,0.2l0.4,0.3c0.2,0.1,0.3,0.3,0.5,0.5c0.2,0.2,0.4,0.5,0.5,0.8c0.1,0.1,0.1,0.3,0.1,0.5c0,0.2,0,0.4,0,0.6
		c0,0.5-0.2,0.9-0.4,1.4c-0.3,0.5-0.7,0.9-1.2,1.2l-0.2-0.2v0l0.1,0.2c-0.1,0-0.1,0.1-0.2,0.1c-0.1,0-0.2,0.1-0.4,0.1l0,0
		c-0.2,0-0.4-0.1-0.5-0.3c-0.1-0.2-0.1-0.4,0.1-0.5c0.1-0.1,0.2-0.2,0.3-0.2c0,0,0.1,0,0.1,0c0,0,0.1,0,0.1,0c0,0,0,0,0.1,0l0,0
		c0.3-0.1,0.5-0.3,0.6-0.6c0.1-0.3,0.1-0.5,0-0.8c-0.1-0.1-0.1-0.2-0.2-0.2c-0.1-0.1-0.2-0.1-0.4-0.1c0,0-0.1,0-0.1,0c0,0,0,0-0.1,0
		c-0.1,0-0.1,0-0.2,0c-0.1,0-0.2,0.1-0.4,0.2c-0.3,0.2-0.7,0.2-1,0.1c-0.3-0.1-0.6-0.4-0.8-0.7c-0.3-0.5-0.3-1-0.1-1.5
		c0.2-0.4,0.5-0.7,0.8-1c0.1,0,0.1-0.1,0.2-0.1c0,0,0.1,0,0.1-0.1l0.2-0.1c0,0,0.1-0.1,0.1-0.1c0.2-0.1,0.3-0.2,0.4-0.3
		c0,0,0-0.1,0.1-0.1c0,0-0.1,0-0.1-0.1c-0.1,0-0.1,0-0.2,0c-0.3,0-0.6,0-1,0.1c-0.4,0.1-0.8,0.2-1.2,0.3c0,0.2,0.1,0.3,0.1,0.5
		c0,0.3,0,0.5,0,0.8c-0.1,0.8-0.3,1.7-0.6,2.6c-0.4,0.9-0.9,1.6-1.5,2.2c0,0,0,0.1-0.1,0.1c0.1,0.2,0.2,0.3,0.3,0.4
		c0.1,0.1,0.2,0.2,0.3,0.3c0,0,0.1,0.1,0.2,0.1c0.1,0,0.1,0.1,0.2,0.1c0,0,0.1,0,0.1,0c0,0,0,0,0.1,0c0,0,0.1,0,0.1,0
		c0.1,0,0.1,0,0.2,0c0.1,0,0.2,0.1,0.4,0.2c0,0,0,0.1,0.1,0.1c0.2,0.3,0.2,0.7,0.1,1c-0.1,0.3-0.4,0.6-0.7,0.8c0,0-0.1,0-0.1,0
		c0,0-0.1,0-0.1,0c-0.1,0-0.2,0.1-0.2,0.1c0,0-0.1,0-0.1,0c0,0-0.1,0-0.1,0h-0.1c-0.1,0-0.1,0-0.2-0.1c-0.1-0.1-0.2-0.1-0.2-0.2
		c0,0-0.1-0.1-0.2-0.2c-0.2-0.2-0.3-0.4-0.4-0.5c-0.1-0.2-0.2-0.4-0.4-0.6c0,0,0-0.1,0-0.1c0-0.1,0-0.1-0.1-0.1l-0.1-0.3
		c-0.6-1.3-0.8-2.8-0.6-4.3c0.1-0.5,0.2-0.9,0.4-1.3c-0.1,0.1-0.3,0.2-0.4,0.3c0,0,0,0-0.1,0.1l-0.1,0.1c-0.4,0.2-0.8,0.2-1.2,0
		c-0.4-0.2-0.7-0.4-0.8-0.8c-0.4-0.8-0.5-1.6-0.2-2.4c0.3-0.7,0.8-1.3,1.5-1.7c0,0,0,0,0,0c0,0,0,0,0,0c0.9-0.4,1.7-0.4,2.5,0
		c0.7,0.4,1.4,1.1,1.9,2c0,0,0,0,0.1,0c0.3-0.1,0.6-0.2,0.9-0.2c0.3,0,0.6-0.1,0.9-0.1c0.2,0,0.3,0,0.5,0c0.1,0,0.2,0,0.3,0
		c0-0.1-0.1-0.1-0.2-0.2c-0.2-0.1-0.4-0.2-0.6-0.3c-0.2-0.1-0.5-0.3-0.7-0.4c-0.2-0.2-0.4-0.4-0.6-0.7c-0.2-0.5-0.3-0.9-0.2-1.4
		c0.1-0.4,0.3-0.8,0.5-1l0.1-0.1c0,0,0.1,0,0.1-0.1c0.3-0.2,0.6-0.2,0.8-0.2c0.2,0,0.4,0.1,0.7,0.2c0,0,0.1,0,0.1,0
		c0.3,0.1,0.5,0.1,0.7,0.2c0.2,0,0.4,0,0.7-0.1c0.2-0.1,0.3-0.2,0.4-0.5c0.1-0.2,0.1-0.4,0-0.6c0,0-0.1-0.1-0.1-0.1
		c-0.1-0.1-0.1-0.1-0.2-0.2c0,0,0,0-0.1-0.1c-0.1-0.1-0.2-0.2-0.2-0.2l0-0.1c-0.1-0.1-0.1-0.2-0.2-0.3c-0.3,0-0.6-0.1-0.9-0.1h-1.8
		c-2.8,0-4.8,0.5-6,1.6c-1.2,1.1-1.7,2.9-1.7,5.4v10.9h4.3c3.2,0,5.6-0.5,7.1-1.5c1.5-1,2.5-2.8,3-5.5h1v16.2h-1
		c-0.4-2.2-1-3.8-1.7-4.9c-0.7-1.1-1.7-1.9-3-2.4c-1.3-0.4-3.1-0.7-5.3-0.7h-4.4v13.9c0,2.1,0.2,3.7,0.6,4.9
		c0.4,1.1,1.1,1.9,2.1,2.3c1,0.4,2.4,0.7,4.2,0.7h2.9c2.9,0,5.7-0.9,8.3-2.7c2.9-2,5.7-4.8,8.5-8.4L69.8,53.7z M51.1,49.4
		c0.2,0.1,0.3,0.1,0.5,0c0.1,0,0.2-0.1,0.3-0.2c0-0.1,0.1-0.2-0.2-0.6c-0.2-0.2-0.3-0.4-0.3-0.5c-0.1-0.2-0.1-0.3-0.1-0.4
		c0-0.1,0-0.3,0.1-0.5c0.1-0.1,0.1-0.2,0.2-0.3c-0.2-0.3-0.5-0.5-0.8-0.6c-0.4-0.1-0.7-0.2-1.1-0.2l-0.1,0c-0.4,0-0.8,0.1-1.1,0.3
		c-0.3,0.2-0.5,0.4-0.7,0.8c-0.2,0.4-0.2,0.8,0.1,1.2l0.3,0.8c0.1,0.3,0.2,0.6,0.2,1c0,0.2,0,0.5-0.1,0.7c0.1,0,0.1-0.1,0.2-0.1
		c0.4-0.2,0.8-0.2,1.2,0c0.4,0.2,0.7,0.6,0.8,1.1c0,0.1-0.1,0.2-0.2,0.3c-0.1,0-0.2,0-0.3-0.1c-0.1-0.2-0.2-0.3-0.4-0.4
		c-0.1,0-0.2,0-0.3,0c-0.1,0-0.1,0.1-0.2,0.2c0,0.1-0.1,0.2-0.1,0.6c0,0.3,0,0.5-0.1,0.7c-0.2,0.3-0.4,0.5-0.7,0.6
		c-0.1,0-0.2,0-0.3,0c0.1,0.1,0.2,0.2,0.3,0.3c0.2,0.2,0.5,0.4,0.8,0.5c0.4,0.2,0.7,0.2,0.9,0c0.1,0,0.1,0,0.2,0
		c0.1,0,0.1,0.1,0.1,0.2c0.1,0.2,0.1,0.4,0.1,0.6c0,0.1-0.1,0.2-0.2,0.2c0,0-0.1,0-0.2,0c-0.4,0-0.8-0.1-1.2-0.3
		c-0.7-0.3-1.2-0.8-1.7-1.4c-0.1,0.1-0.2,0.2-0.3,0.2c-0.3,0.1-0.5,0.1-0.8,0c-0.3-0.1-0.5-0.3-0.6-0.5c-0.1-0.2-0.2-0.5-0.2-0.9
		c0-0.4-0.1-0.5-0.2-0.5c0,0,0,0-0.1,0c-0.1,0-0.1,0-0.1,0.1c0,0,0,0,0,0.2c0,0.1-0.1,0.2-0.2,0.2c-0.1,0-0.2,0-0.3-0.1
		c-0.3-0.4-0.2-0.7-0.1-0.9c0.1-0.3,0.3-0.5,0.6-0.6c0.3-0.1,0.6-0.1,0.8,0.1c0,0,0.1,0,0.1,0.1c-0.1-0.2-0.1-0.3-0.1-0.5
		c-0.1-0.5-0.2-1.1-0.1-1.6c0-0.5,0.1-1,0.3-1.4c0.2-0.5,0.6-0.9,0.9-1.3c0.4-0.4,0.8-0.6,1.3-0.8c0.5-0.2,1-0.3,1.5-0.3
		c0.6,0,1.1,0.1,1.6,0.3c0.5,0.2,0.9,0.5,1.3,0.9c0.4,0.4,0.6,0.9,0.7,1.4c0.1,0.5,0.1,1-0.1,1.4c-0.1,0.3-0.3,0.5-0.5,0.7
		c-0.2,0.2-0.5,0.3-0.8,0.3c-0.3,0-0.5,0-0.8-0.1c-0.3-0.1-0.5-0.3-0.7-0.6c-0.1-0.3-0.2-0.6,0-0.8c0.1-0.2,0.2-0.3,0.3-0.4
		c0.2-0.1,0.3-0.1,0.5,0c0.2,0.1,0.3,0.2,0.3,0.4c0,0.1,0.1,0.3,0,0.5c-0.1,0.1-0.2,0.2-0.3,0.3C51,49.3,51.1,49.4,51.1,49.4z
		 M67.7,54.8c0,0.1-0.1,0.2-0.1,0.3c0,0-0.1,0.1-0.1,0.1c0,0-0.1,0.1-0.1,0.1c0,0-0.1,0.1-0.1,0.1c-0.1,0-0.1,0-0.2,0
		c-0.1,0-0.1,0-0.2,0l0-0.3l0,0.3c0,0-0.1,0-0.1,0c-0.2,0-0.3-0.1-0.3-0.2c-0.1-0.1-0.2-0.1-0.2-0.2c0,0-0.1-0.1-0.1-0.1
		c0,0-0.1-0.1-0.1-0.1c-0.1-0.1-0.1-0.1-0.1-0.2c0,0,0,0-0.1,0c-0.2-0.3-0.4-0.5-0.6-0.7c-0.2-0.2-0.4-0.4-0.6-0.5
		c-0.1-0.1-0.3-0.2-0.4-0.3l0,0c0.1,0.1,0.2,0.2,0.2,0.3c0.2,0.2,0.3,0.4,0.3,0.7c0,0.2,0.1,0.4,0.1,0.6c0,0.1,0,0.1,0,0.2
		c0,0.1,0,0.1-0.1,0.2c-0.1,0.2-0.2,0.3-0.3,0.4c-0.1,0.2-0.3,0.3-0.5,0.3l-0.1,0c0,0-0.1,0-0.1,0c-0.2,0-0.3,0-0.4-0.1
		c-0.3-0.1-0.3-0.3-0.3-0.4c0-0.1,0-0.2,0-0.3c0-0.1,0.1-0.1,0.1-0.2c0,0,0-0.1,0.1-0.1c0,0,0.1-0.1,0.1-0.2c0-0.1,0.1-0.2,0.1-0.3
		c0-0.1,0-0.1,0-0.2c0,0,0,0,0,0c-0.1,0-0.2,0.1-0.3,0.1c0,0-0.1,0-0.1,0c0,0,0,0-0.1,0l0,0c0,0,0,0-0.1,0c-0.1,0-0.2,0-0.3,0
		c-0.1,0-0.2,0-0.3-0.1c0,0-0.1,0-0.1-0.1c0,0-0.1,0-0.1,0c-0.1-0.1-0.2-0.2-0.4-0.3c-0.1-0.1-0.2-0.3-0.2-0.5c0,0,0-0.1,0-0.1
		c-0.2,0.2-0.4,0.3-0.6,0.3c-0.2,0-0.6-0.1-0.8-0.3c-0.1,0-0.1-0.1-0.2-0.1c0,0,0,0,0,0c-0.1,0.1-0.2,0.2-0.3,0.4l-0.1,0.1
		c-0.1,0-0.2,0.1-0.2,0.2l-0.1,0.1c-0.1,0.1-0.2,0.1-0.2,0.2c-0.2,0.1-0.3,0.2-0.4,0.3c-0.1,0.1-0.2,0.2-0.3,0.3l-0.5,0.8
		c-0.1,0.1-0.1,0.2-0.2,0.3c0,0,0.1,0,0.1-0.1c0.3-0.2,0.6-0.4,0.9-0.5c0.3-0.1,0.7-0.2,1.1-0.3c0,0,0.1,0,0.1,0c0,0,0.1,0,0.1,0
		l0,0c0.1,0,0.2,0,0.3,0l0.3,0c0.5,0,0.9,0.1,1.3,0.3c0.2,0.1,0.7,0.3,0.7,0.7c0,0.1,0,0.3-0.2,0.4c-0.1,0.1-0.2,0.2-0.3,0.3
		c-0.1,0-0.1,0-0.2,0.1c-0.1,0-0.1,0-0.2,0c-0.2,0-0.3,0-0.5-0.2c-0.1-0.1-0.3-0.2-0.5-0.3c-0.2-0.1-0.4-0.2-0.6-0.2
		c-0.2-0.1-0.4-0.1-0.5-0.1c-0.1,0-0.2,0-0.3,0.1c-0.1,0-0.2,0.1-0.3,0.1c-0.2,0.1-0.4,0.2-0.6,0.3c-0.2,0.1-0.4,0.3-0.6,0.4
		c-0.2,0.2-0.4,0.3-0.6,0.5c-0.1,0.1-0.2,0.2-0.3,0.2c-0.3,1.1-0.8,2-1.2,2.6c-0.4,0.5-0.9,1-1.4,1.5c-0.4,0.3-0.8,0.6-1.3,0.8
		c0.3,0,0.5-0.2,0.8-0.4c0.4-0.2,0.7-0.5,1-0.8c0.2-0.2,0.4-0.3,0.5-0.5l0.1-0.1c0.1-0.2,0.3-0.3,0.4-0.4c0.3-0.3,0.6-0.6,0.9-1
		c0.3-0.3,0.5-0.6,0.7-0.8c0.2-0.2,0.4-0.3,0.6-0.5c0.2-0.2,0.5-0.3,0.7-0.4c0.3-0.1,0.6-0.2,0.8-0.3c0.3-0.1,0.5-0.1,0.7-0.2
		c0.1,0,0.1,0,0.2,0l0.1,0c0.1,0,0.2,0.1,0.2,0.1c0.1,0.1,0.2,0.2,0.2,0.3c0,0.1,0,0.3-0.2,0.4c-0.1,0.1-0.2,0.1-0.3,0.2l-0.1,0
		c0,0-0.1,0-0.1,0c-0.1,0-0.1,0-0.2,0c-0.1,0-0.2,0-0.3,0c-0.1,0-0.1,0-0.2,0c0,0,0,0,0,0c0,0.1,0,0.1,0,0.2c0,0,0,0.1,0,0.1
		c0,0,0,0.1,0,0.2c-0.1,0.2-0.2,0.4-0.4,0.5c-0.2,0.1-0.3,0.2-0.5,0.3c0,0-0.1,0-0.1,0.1c-0.1,0-0.1,0.1-0.2,0.1
		c-0.1,0.1-0.3,0.2-0.4,0.3c-0.1,0.1-0.1,0.1-0.1,0.1c0,0,0,0.1,0,0.1c0,0,0,0.1,0,0.1c0,0,0,0,0.1,0c0.1-0.1,0.2-0.1,0.2-0.2
		c0.1-0.1,0.2-0.1,0.3-0.2c0.1-0.1,0.3-0.1,0.4-0.1c0,0,0,0,0.1,0c0,0,0,0,0.1,0c0,0,0.1,0,0.1,0c0.1,0,0.3,0,0.4,0.1
		c0.2,0,0.3,0.2,0.4,0.4c0,0.1,0,0.2,0,0.3c0,0.1-0.1,0.2-0.1,0.3c-0.1,0.1-0.1,0.3-0.2,0.4c-0.1,0.1-0.2,0.2-0.3,0.3
		c0,0-0.1,0-0.1,0c0,0-0.1,0.1-0.1,0.1l-0.2,0.1c-0.3,0.2-0.5,0.2-0.7,0.3c-0.2,0-0.5,0.1-0.8,0.1l-0.1,0c0,0,0,0-0.1,0
		c0,0-0.1,0-0.1,0c0,0-0.1,0-0.1,0l-0.1,0c-0.2,0-0.3,0-0.5,0c-0.1,0-0.3-0.1-0.4-0.4c0,0,0,0,0-0.1l0.2-0.1l-0.3,0c0,0,0-0.1,0-0.1
		c-0.1,0-0.1,0.1-0.2,0.1c-0.2,0.1-0.4,0.3-0.7,0.5c-0.3,0.2-0.5,0.4-0.8,0.5c-0.3,0.2-0.7,0.3-1,0.3c-0.1,0-0.2,0-0.2,0l-0.2,0
		c-0.1,0-0.1,0-0.2,0c-0.1,0-0.1,0-0.2,0c-0.1,0-0.2,0-0.3,0c0,0,0,0,0,0c-0.1,0-0.2,0-0.4,0c-0.1,0-0.1,0-0.2-0.1
		c-0.1,0-0.1-0.1-0.2-0.1c0,0,0,0-0.1,0l-0.4,0c-0.1,0-0.2,0-0.2,0l-0.2,0c-0.1,0-0.2,0-0.2,0h-0.2c-1.1,0-2.1-0.3-3-0.9
		c-1.1-0.6-1.6-1.5-1.8-2.6l0-0.3c0-0.2,0-0.4,0-0.5c0-0.2,0.2-0.4,0.4-0.4c0,0,0.1,0,0.1,0c0.1,0,0.2,0,0.3,0.1
		c0.1,0.1,0.2,0.1,0.2,0.2c0,0,0,0,0.1,0.1c0.1,0.1,0.2,0.2,0.2,0.2c0,0,0.2,0.1,0.4,0c0.1,0,0.2,0,0.2-0.1c0.1-0.1,0.2-0.2,0.3-0.3
		l0.2-0.3c0.1-0.1,0.2-0.2,0.4-0.2c0,0,0,0,0,0c0.2,0,0.3,0.1,0.4,0.2c0,0.1,0,0.1,0,0.2l0,0.1c0,0.1,0,0.2,0,0.4
		c0,0.1-0.1,0.3-0.2,0.4c-0.1,0.2-0.2,0.4-0.4,0.6c-0.2,0.2-0.4,0.3-0.7,0.4c-0.1,0-0.2,0-0.3,0c-0.1,0-0.2,0-0.2,0
		c0,0.1,0.1,0.2,0.2,0.3c0.2,0.2,0.4,0.4,0.6,0.5c0.1,0,0.2,0.1,0.3,0.1c0.1,0,0.1,0,0.2,0.1l0,0c0,0,0.1,0,0.1,0c0,0,0.1,0,0.1,0
		c0,0,0,0,0,0c0,0,0.1,0,0.1,0c0,0,0.1,0,0.2-0.1c0.1,0,0.2-0.1,0.3-0.1c0.1,0,0.3,0,0.4,0c0.1,0,0.2,0,0.3,0c0.1,0,0.2,0,0.3,0
		c0.1,0,0.2,0,0.3,0c0.4,0,0.8-0.2,1.1-0.5c0.3-0.2,0.5-0.5,0.7-0.9c0-0.1-0.1-0.2-0.1-0.3l-0.2-0.4c0-0.1,0-0.1-0.1-0.1
		c-0.1-0.2-0.1-0.3-0.2-0.5c-0.1-0.2-0.1-0.4-0.1-0.6l0-0.1c0-0.1,0-0.2,0-0.3c0-0.1,0-0.3,0-0.5c0.1-0.4,0.3-0.4,0.4-0.5
		c0.1,0,0.2,0,0.3,0.1c0,0,0,0,0.1,0.1l0.2,0l-0.2-0.1c0,0,0,0,0,0c0,0-0.1-0.1-0.1-0.2c0-0.1-0.1-0.1-0.1-0.2c0-0.1,0-0.1,0-0.2
		l0.1-0.3l0.2-0.3l-0.2,0.2c0,0-0.1-0.1-0.1-0.1c0,0-0.1,0-0.1-0.1c0,0-0.1-0.1-0.1-0.1c-0.1-0.1-0.1-0.2-0.1-0.3c0,0,0,0,0-0.1
		c0-0.1,0-0.2,0.1-0.4c0.1-0.1,0.1-0.2,0.2-0.2c0,0,0.1-0.1,0.2-0.1c0.1,0,0.1,0,0.2,0c0,0,0.1,0,0.1,0c0.3,0,0.7,0.2,1,0.7
		c0.3,0.4,0.5,0.9,0.6,1.4l0.1,0.4c0,0.1,0.1,0.3,0.1,0.4c0.1,0.6,0,1.1-0.1,1.5c-0.1,0.3-0.2,0.7-0.4,1c0.1-0.1,0.1-0.2,0.2-0.3
		c0.3-0.5,0.5-1,0.6-1.5c0-0.2,0.1-0.4,0.1-0.6c0-0.2,0-0.4,0-0.6c0-0.3-0.1-0.6-0.2-0.9c-0.1-0.2-0.3-0.5-0.4-0.6
		c-0.1-0.1-0.2-0.2-0.2-0.3c-0.1-0.1-0.1-0.2-0.2-0.3c-0.1-0.1-0.1-0.2-0.2-0.3c0-0.1-0.1-0.2-0.1-0.4c0-0.1,0-0.2,0-0.3
		c0,0,0-0.1,0.1-0.2l0.1-0.2c0,0,0,0,0-0.1c0-0.2-0.1-0.4-0.1-0.4c-0.1-0.1-0.1-0.1-0.2-0.2c0,0-0.1,0-0.1,0l-0.2-0.1
		c0,0-0.1,0-0.1,0c-0.1-0.1-0.2-0.2-0.2-0.3c0-0.1,0-0.2,0.1-0.2c0,0,0,0,0,0c0,0,0,0,0-0.1c0,0,0,0,0.1,0c0,0,0,0,0.1,0
		c0,0,0.1-0.1,0.2-0.1c0.1,0,0.2,0,0.3,0c0.6,0,1.1,0.3,1.6,0.8c0.4,0.6,0.8,1.2,0.9,2c0,0.1,0.1,0.2,0.1,0.4c0,0.1,0,0.3,0,0.4
		c0.1,0.6,0.1,1.1,0,1.6c0,0.5-0.2,1-0.3,1.4c-0.1,0.2-0.2,0.4-0.2,0.6c-0.1,0.2-0.2,0.4-0.3,0.6c-0.6,0.9-1.2,1.6-2,2.1
		c-0.8,0.4-1.7,0.7-2.7,0.9c-0.1,0-0.1,0-0.2,0c0.4,0.1,0.8,0,1.3,0c0.7-0.1,1.3-0.3,1.7-0.5c0.5-0.3,0.9-0.6,1.4-1
		c0,0,0.1-0.1,0.1-0.1c0.1-0.1,0.1-0.1,0.2-0.2c0.4-0.5,0.7-1,1-1.4c0.2-0.5,0.4-1,0.6-1.5l0.3,0L55.8,57c0,0,0-0.1,0-0.1
		c0.2-0.5,0.3-1,0.6-1.5c0.2-0.5,0.5-1,0.9-1.5l0.2-0.3c0.1-0.1,0.2-0.2,0.3-0.4c0,0,0,0,0.1-0.1l0-0.1l0,0c0.2-0.3,0.4-0.5,0.6-0.7
		c0.3-0.2,0.5-0.4,0.6-0.4c0.1,0,0.2,0,0.2,0c0,0,0.1,0,0.1,0c0-0.2,0.1-0.4,0.2-0.6c0.2-0.3,0.4-0.4,0.8-0.5c0.3,0,0.6,0,0.8,0.3
		c0.1,0.1,0.2,0.2,0.2,0.2c0,0,0-0.1,0-0.1c0-0.2,0.1-0.4,0.3-0.6c0.2-0.1,0.3-0.2,0.5-0.3c0.1,0,0.1,0,0.2-0.1c0,0,0.1,0,0.1,0
		c0,0,0.1,0,0.1,0c0,0,0,0,0,0l0,0c0,0,0.1,0,0.1,0c0.3,0,0.3,0,0.5,0c0.1,0,0.2,0,0.3,0.1c0.1,0,0.2,0.1,0.3,0.2
		c0.1,0.1,0.2,0.3,0.2,0.4c0,0,0,0.1,0,0.1c0,0,0,0.1,0,0.1c0,0,0,0.1,0,0.2c0,0,0.1,0,0.1-0.1c0.1-0.1,0.2-0.2,0.3-0.3
		c0,0,0-0.1,0.1-0.2c0,0,0-0.1,0.1-0.1c0,0,0,0,0,0c0,0,0,0,0-0.1c0.1-0.2,0.2-0.4,0.2-0.6c0.2-0.3,0.4-0.4,0.6-0.4c0,0,0.1,0,0.1,0
		c0.2,0,0.4,0.1,0.5,0.3c0.2,0.1,0.2,0.3,0.3,0.5c0,0.3,0,0.6-0.2,0.8c-0.1,0.2-0.3,0.3-0.5,0.5c-0.1,0.1-0.2,0.2-0.4,0.2
		c-0.1,0.1-0.3,0.1-0.4,0.1c0,0-0.1,0-0.1,0c0.3,0.1,0.6,0.3,0.9,0.4c0.1,0,0.1,0.1,0.2,0.1c0.1,0,0.2,0.1,0.2,0.1
		c0.1,0.1,0.3,0.2,0.4,0.3l0.3,0.2c0.2,0.2,0.4,0.3,0.6,0.5c0.2,0.2,0.3,0.4,0.3,0.5C67.7,54.6,67.7,54.7,67.7,54.8z"/>
	<linearGradient id="SVGID_3_" gradientUnits="userSpaceOnUse" x1="44.6815" y1="31.0899" x2="49.0027" y2="31.0899">
		<stop  offset="0" style="stop-color:#BCA061"/>
		<stop  offset="0.1845" style="stop-color:#AA925A"/>
		<stop  offset="0.4536" style="stop-color:#968253"/>
		<stop  offset="0.7249" style="stop-color:#8A784F"/>
		<stop  offset="1" style="stop-color:#86754D"/>
	</linearGradient>
	<path class="st2" d="M48.5,31.3L48.5,31.3c0.1-0.1,0.1-0.1,0.2-0.1l0,0c0,0,0.1,0,0.1,0l0.1,0c0,0,0.1-0.1,0.1-0.1
		c-0.4-0.7-0.8-1.2-1.3-1.5c-0.5-0.2-0.8-0.3-1.2-0.2l-0.1,0c0,0,0,0,0,0c0,0,0,0,0,0c0,0,0.1,0,0.1,0.1c0,0,0,0,0,0
		c0.1,0,0.1,0.1,0.2,0.1c0.1,0.1,0.2,0.2,0.3,0.3c0,0,0,0.1,0.1,0.1c0,0.2,0.1,0.4,0,0.6c0,0.2-0.2,0.4-0.4,0.5c0,0-0.1,0-0.1,0
		c0,0-0.1,0-0.1,0c-0.1,0-0.3,0-0.4,0c-0.2,0-0.2,0-0.4,0c-0.3-0.1-0.6-0.1-0.8,0c-0.4,0.2-0.4,0.4-0.4,0.5c0,0.2,0,0.5,0.1,0.7
		c0,0,0,0,0,0c0,0.1,0.1,0.2,0.2,0.2c0.2,0,0.4-0.1,0.6-0.2c0,0,0,0,0,0c0,0,0-0.1,0-0.1c0-0.1,0.1-0.2,0.2-0.2
		c0.1,0,0.2-0.1,0.3-0.1c0.1,0,0.1,0,0.2,0c0.2,0,0.3,0.2,0.4,0.3c0,0.1,0.1,0.2,0.1,0.3C47.3,32.2,47.8,31.7,48.5,31.3z"/>
	<linearGradient id="SVGID_4_" gradientUnits="userSpaceOnUse" x1="10.8108" y1="45.3002" x2="80.5184" y2="45.3002">
		<stop  offset="0" style="stop-color:#BCA061"/>
		<stop  offset="0.1845" style="stop-color:#AA925A"/>
		<stop  offset="0.4536" style="stop-color:#968253"/>
		<stop  offset="0.7249" style="stop-color:#8A784F"/>
		<stop  offset="1" style="stop-color:#86754D"/>
	</linearGradient>
	<path class="st3" d="M45.7,10.4c-19.2,0-34.9,15.6-34.9,34.9c0,19.2,15.6,34.9,34.9,34.9c19.2,0,34.9-15.6,34.9-34.9
		C80.5,26.1,64.9,10.4,45.7,10.4z M45.7,77.9c-18,0-32.6-14.6-32.6-32.6c0-18,14.6-32.6,32.6-32.6c18,0,32.6,14.6,32.6,32.6
		C78.3,63.3,63.7,77.9,45.7,77.9z"/>
	<linearGradient id="SVGID_5_" gradientUnits="userSpaceOnUse" x1="-4.512773e-06" y1="45.6506" x2="91.3253" y2="45.6506">
		<stop  offset="0" style="stop-color:#BCA061"/>
		<stop  offset="0.1845" style="stop-color:#AA925A"/>
		<stop  offset="0.4536" style="stop-color:#968253"/>
		<stop  offset="0.7249" style="stop-color:#8A784F"/>
		<stop  offset="1" style="stop-color:#86754D"/>
	</linearGradient>
	<path class="st4" d="M86.9,35.2c-1.2-1.8-2.4-3.5-3.1-5.3c-0.8-1.8-1.2-4-1.6-6.2c-0.7-3.8-1.5-7.7-4.2-10.3
		c-2.7-2.7-6.6-3.4-10.3-4.2c-2.1-0.4-4.3-0.8-6.2-1.6c-1.7-0.7-3.5-1.9-5.3-3.1C52.9,2.3,49.6,0,45.7,0c-4,0-7.3,2.3-10.5,4.5
		c-1.8,1.2-3.5,2.4-5.3,3.1c-1.8,0.8-4.1,1.2-6.2,1.6c-3.8,0.7-7.7,1.5-10.3,4.2C10.7,16,10,19.9,9.2,23.7c-0.4,2.1-0.8,4.3-1.6,6.2
		c-0.7,1.7-1.9,3.5-3.1,5.3C2.3,38.4,0,41.7,0,45.6s2.3,7.3,4.5,10.5c1.2,1.8,2.4,3.5,3.1,5.3c0.8,1.8,1.2,4,1.6,6.2
		c0.7,3.8,1.5,7.7,4.2,10.3c2.7,2.7,6.6,3.4,10.3,4.2c2.1,0.4,4.3,0.8,6.2,1.6c1.7,0.7,3.4,1.9,5.3,3.1c3.2,2.2,6.6,4.5,10.5,4.5
		c4,0,7.3-2.3,10.5-4.5c1.8-1.2,3.5-2.4,5.3-3.1c1.8-0.8,4-1.2,6.2-1.6c3.8-0.7,7.7-1.5,10.3-4.2c2.7-2.6,3.4-6.6,4.2-10.3
		c0.4-2.1,0.8-4.3,1.6-6.2c0.7-1.7,1.9-3.5,3.1-5.3c2.2-3.2,4.5-6.6,4.5-10.5S89,38.4,86.9,35.2z M45.7,82.5
		c-20.5,0-37.2-16.7-37.2-37.2c0-20.5,16.7-37.2,37.2-37.2c20.5,0,37.2,16.7,37.2,37.2C82.8,65.8,66.2,82.5,45.7,82.5z"/>
</g>
</svg>
